<?xml version="1.0" encoding="UTF-8" standalone="no"?>
<!DOCTYPE svg PUBLIC "-//W3C//DTD SVG 1.1//EN" "http://www.w3.org/Graphics/SVG/1.1/DTD/svg11.dtd">
<svg width="100%" height="100%" viewBox="0 0 263 262" version="1.1" xmlns="http://www.w3.org/2000/svg" xmlns:xlink="http://www.w3.org/1999/xlink" xml:space="preserve" xmlns:serif="http://www.serif.com/" style="fill-rule:evenodd;clip-rule:evenodd;stroke-linecap:round;stroke-linejoin:round;stroke-miterlimit:1.5;">
    <g transform="matrix(0.984362,0,0,1.75725,2.79315,-52.6949)">
        <ellipse cx="134.307" cy="97.137" rx="38.096" ry="21.34" style="stroke:white;stroke-width:0.7px;"/>
    </g>
    <g transform="matrix(1,0,0,1,3.19557,0)">
        <path d="M141.804,75.198C141.804,71.106 143.669,68.439 145.872,65.301C148.487,61.575 153.265,57.216 158.293,55.021C163.459,52.766 168.864,52.725 170.651,52.725" style="fill:none;stroke:black;stroke-width:5.33px;"/>
    </g>
    <g transform="matrix(-1,0,0,1,266.804,0.0624855)">
        <path d="M141.804,75.198C141.804,71.106 143.669,68.439 145.872,65.301C148.487,61.575 153.265,57.216 158.293,55.021C163.459,52.766 168.864,52.725 170.651,52.725" style="fill:none;stroke:black;stroke-width:5.33px;"/>
    </g>
    <g transform="matrix(1.16168,0,0,1.14337,-79.8934,37.166)">
        <ellipse cx="184.985" cy="110.055" rx="50.788" ry="51.602"/>
    </g>
    <g transform="matrix(0.859834,0,0,0.859834,14.5097,22.3618)">
        <circle cx="116.872" cy="131" r="8.141" style="fill:white;"/>
    </g>
    <g transform="matrix(0.859834,0,0,0.859834,54.5097,22.3618)">
        <circle cx="116.872" cy="131" r="8.141" style="fill:white;"/>
    </g>
    <g transform="matrix(0.859834,0,0,0.859834,14.5097,82.3618)">
        <circle cx="116.872" cy="131" r="8.141" style="fill:white;"/>
    </g>
    <g transform="matrix(0.859834,0,0,0.859834,54.5097,82.3618)">
        <circle cx="116.872" cy="131" r="8.141" style="fill:white;"/>
    </g>
    <g transform="matrix(0.859834,0,0,0.859834,-5.49027,52.3618)">
        <circle cx="116.872" cy="131" r="8.141" style="fill:white;"/>
    </g>
    <g transform="matrix(0.859834,0,0,0.859834,74.5097,52.3618)">
        <circle cx="116.872" cy="131" r="8.141" style="fill:white;"/>
    </g>
    <g transform="matrix(0.798417,0,0,0.798417,78.6876,-51.5926)">
        <circle cx="116.872" cy="131" r="8.141"/>
    </g>
    <g transform="matrix(0.798417,0,0,0.798417,4.6876,-51.5926)">
        <circle cx="116.872" cy="131" r="8.141"/>
    </g>
    <g transform="matrix(0.474698,0,0,1,28.5897,2.84217e-14)">
        <rect x="223.111" y="116.358" width="2.107" height="106.625" style="fill:white;stroke:white;stroke-width:1.28px;"/>
    </g>
    <g transform="matrix(0.555293,0,0,0.155012,58.6786,98.5042)">
        <rect x="67.932" y="94.817" width="136.529" height="20.358" style="fill:white;stroke:white;stroke-width:2.45px;"/>
    </g>
</svg>
